<svg xmlns="http://www.w3.org/2000/svg" width="24" height="24" viewBox="0 0 24 24" fill="none" stroke="currentColor" stroke-width="2" stroke-linecap="round" stroke-linejoin="round" class="icon icon-tabler icons-tabler-outline icon-tabler-brand-devto">
  <path stroke="none" d="M0 0h24v24H0z" fill="none" />
  <path d="M4 5a2 2 0 0 0 -2 2v10a2 2 0 0 0 2 2h16a2 2 0 0 0 2 -2v-10a2 2 0 0 0 -2 -2h-16z" />
  <path d="M6 10v4h2.5a1.5 1.5 0 0 0 1.5 -1.5v-1a1.5 1.5 0 0 0 -1.5 -1.5h-2.5z" />
  <path d="M12 10v4" />
  <path d="M12 10h3" />
  <path d="M12 12h2" />
  <path d="M12 14h3" />
  <path d="M16 10l2 4l2 -4" />
</svg>